<svg width="16" height="16" viewBox="0 0 16 16" fill="none" xmlns="http://www.w3.org/2000/svg">
<path d="M13.5422 7.61913C13.2916 7.61913 13.0885 7.82233 13.0885 8.07287C13.0885 10.8786 10.8059 13.1614 7.99993 13.1614C5.19393 13.1614 2.91167 10.8785 2.91167 8.07287C2.91167 5.2672 5.1942 2.98433 7.99993 2.98433C8.9294 2.98433 9.82367 3.2452 10.6125 3.71973L9.9552 3.732C9.6244 3.73846 9.3612 4.01187 9.36733 4.34267C9.37347 4.66993 9.64047 4.93107 9.96627 4.93107H9.978L11.7453 4.89767C12.0761 4.8912 12.3393 4.6178 12.3332 4.287L12.2998 2.5194C12.2937 2.188 12.0161 1.91987 11.6891 1.931C11.3583 1.93747 11.0951 2.21087 11.1013 2.54167L11.1091 2.9612C10.1718 2.38973 9.10647 2.0768 7.99987 2.0768C4.69387 2.0768 2.00407 4.7666 2.00407 8.07293C2.00407 11.3793 4.69387 14.069 7.99987 14.069C11.3059 14.069 13.9959 11.3792 13.9959 8.07293C13.9959 7.82233 13.7927 7.61913 13.5422 7.61913Z" fill="#23232B"/>
</svg>
