
<svg width="38" height="38" viewBox="0 0 38 38" fill="none" xmlns="http://www.w3.org/2000/svg">
<rect width="38" height="38" rx="19" fill="#1B191D"/>
<g clip-path="url(#clip0_11563_17510)">
<path d="M27.2528 10.1016H10.746C9.77953 10.1016 8.99603 10.8851 8.99603 11.8516V15.8526C8.99603 16.8191 9.77953 17.6026 10.746 17.6026H27.2528C28.2193 17.6026 29.0028 16.8191 29.0028 15.8526V11.8516C29.0028 10.8851 28.2193 10.1016 27.2528 10.1016Z" fill="white"/>
<path d="M18.2928 19.5H9.74603C9.33193 19.5 8.99603 19.8359 8.99603 20.25C8.99603 20.6641 9.33193 21 9.74603 21H18.2929C18.707 21 19.0429 20.6641 19.0429 20.25C19.0429 19.8359 18.7069 19.5 18.2928 19.5Z" fill="white"/>
<path d="M18.2928 22.8984H9.74603C9.33193 22.8984 8.99603 23.2343 8.99603 23.6484C8.99603 24.0625 9.33193 24.3984 9.74603 24.3984H18.2929C18.707 24.3984 19.0429 24.0625 19.0429 23.6484C19.0429 23.2343 18.7069 22.8984 18.2928 22.8984Z" fill="white"/>
<path d="M28.2539 22.8545H28.2441L25.4945 22.889L25.46 20.1386C25.4551 19.7275 25.1202 19.3984 24.71 19.3984H24.7002C24.2861 19.4033 23.9551 19.7441 23.96 20.1582L23.9945 22.9078L21.2441 22.9423C20.83 22.9472 20.499 23.288 20.5039 23.7021C20.5088 24.1123 20.8437 24.4423 21.2539 24.4423H21.2637L24.0133 24.4078L24.0478 27.1582C24.0527 27.5693 24.3876 27.8984 24.7978 27.8984H24.8076C25.2217 27.8935 25.5527 27.5527 25.5478 27.1386L25.5133 24.389L28.2637 24.3545C28.6778 24.3496 29.0088 24.0088 29.0039 23.5947C28.999 23.1845 28.6641 22.8545 28.2539 22.8545Z" fill="white"/>
</g>
<defs>
<clipPath id="clip0_11563_17510">
<rect width="24" height="24" fill="white" transform="translate(7 7)"/>
</clipPath>
</defs>
</svg>
