<svg width="40" height="41" viewBox="0 0 40 41" fill="none" xmlns="http://www.w3.org/2000/svg">
<g clip-path="url(#clip0_1004_2442)">
<path d="M10.9945 5.13147H10.932C10.8781 5.13147 10.8344 5.17519 10.8344 5.22913V6.45959C10.8344 6.51353 10.8781 6.55725 10.932 6.55725H10.9945C11.0484 6.55725 11.0922 6.51353 11.0922 6.45959V5.22913C11.0922 5.17519 11.0484 5.13147 10.9945 5.13147Z" fill="url(#paint0_linear_1004_2442)"/>
<path d="M10.9945 7.75323H10.932C10.8781 7.75323 10.8344 7.79696 10.8344 7.85089V10.2775C10.8344 10.3314 10.8781 10.3751 10.932 10.3751H10.9945C11.0484 10.3751 11.0922 10.3314 11.0922 10.2775V7.85089C11.0922 7.79696 11.0484 7.75323 10.9945 7.75323Z" fill="url(#paint1_linear_1004_2442)"/>
<path d="M10.9945 11.0525H10.932C10.8781 11.0525 10.8344 11.0962 10.8344 11.1501V13.5767C10.8344 13.6306 10.8781 13.6744 10.932 13.6744H10.9945C11.0484 13.6744 11.0922 13.6306 11.0922 13.5767V11.1501C11.0922 11.0962 11.0484 11.0525 10.9945 11.0525Z" fill="url(#paint2_linear_1004_2442)"/>
<path d="M29.0679 8.61719H29.0054C28.9515 8.61719 28.9078 8.66091 28.9078 8.71484V12.6992C28.9078 12.7532 28.9515 12.7969 29.0054 12.7969H29.0679C29.1219 12.7969 29.1656 12.7532 29.1656 12.6992V8.71484C29.1656 8.66091 29.1219 8.61719 29.0679 8.61719Z" fill="url(#paint3_linear_1004_2442)"/>
<path d="M26.4977 0.313354H13.5016C12.0997 0.313354 10.9633 1.44978 10.9633 2.85164V34.0774C10.9633 35.4793 12.0997 36.6157 13.5016 36.6157H26.4977C27.8995 36.6157 29.0359 35.4793 29.0359 34.0774V2.85164C29.0359 1.44978 27.8995 0.313354 26.4977 0.313354Z" fill="url(#paint4_radial_1004_2442)"/>
<path d="M26.3789 0.601746H13.6219C12.3193 0.601746 11.2633 1.65772 11.2633 2.96034V33.9689C11.2633 35.2715 12.3193 36.3275 13.6219 36.3275H26.3789C27.6815 36.3275 28.7375 35.2715 28.7375 33.9689V2.96034C28.7375 1.65772 27.6815 0.601746 26.3789 0.601746Z" fill="#282828"/>
<path d="M26.3374 0.767151H13.6632C12.4253 0.767151 11.4218 1.77066 11.4218 3.00856V33.9203C11.4218 35.1582 12.4253 36.1617 13.6632 36.1617H26.3374C27.5753 36.1617 28.5788 35.1582 28.5788 33.9203V3.00856C28.5788 1.77066 27.5753 0.767151 26.3374 0.767151Z" fill="#0C080C"/>
<path d="M26.3374 0.765625H13.6624C12.4257 0.769531 11.4242 1.77187 11.4218 3.00859V3.67578C11.4249 2.43984 12.4265 1.43828 13.6624 1.43438H26.3374C27.5734 1.43828 28.5749 2.43984 28.5781 3.67578V3.00859C28.5757 1.77187 27.5742 0.769531 26.3374 0.765625Z" fill="url(#paint5_linear_1004_2442)"/>
<path d="M26.3727 1.32349H13.6274C12.7873 1.32349 12.1063 2.0045 12.1063 2.84458V34.0852C12.1063 34.9253 12.7873 35.6063 13.6274 35.6063H26.3727C27.2127 35.6063 27.8938 34.9253 27.8938 34.0852V2.84458C27.8938 2.0045 27.2127 1.32349 26.3727 1.32349Z" fill="url(#paint6_linear_1004_2442)"/>
<path d="M12.0913 33.7812V2.99999C12.0913 1.77264 12.9023 1.15077 13.8929 1.15077L13.346 0.889832C12.3554 0.889832 11.4218 1.83436 11.4218 2.99921V33.8367C11.4218 34.7797 11.8812 35.7461 13.2234 36.0133H13.8929C12.9023 36.0133 12.0913 35.0086 12.0913 33.7812Z" fill="url(#paint7_linear_1004_2442)"/>
<path d="M27.8789 33.7812V2.99999C27.8789 1.77264 27.068 1.15077 26.0773 1.15077L26.6242 0.889832C27.6148 0.889832 28.5484 1.83436 28.5484 2.99921V33.8367C28.5484 34.7797 28.089 35.7461 26.7469 36.0133H26.0773C27.068 36.0133 27.8789 35.0086 27.8789 33.7812Z" fill="url(#paint8_linear_1004_2442)"/>
<path d="M10.9637 32.9158H11.2629V33.1697H10.9637V32.9158ZM10.9637 3.70642H11.2629V3.96033H10.9637V3.70642ZM28.7371 32.9158H29.0363V33.1697H28.7371V32.9158ZM28.7371 3.70642H29.0363V3.96033H28.7371V3.70642Z" fill="#CCCCCC"/>
<path d="M21.939 1.67444H18.0609C17.7157 1.67444 17.4359 1.95426 17.4359 2.29944C17.4359 2.64462 17.7157 2.92444 18.0609 2.92444H21.939C22.2842 2.92444 22.564 2.64462 22.564 2.29944C22.564 1.95426 22.2842 1.67444 21.939 1.67444Z" fill="#0C080C"/>
<path d="M18.5289 2.16425H20.4039C20.4797 2.16425 20.5406 2.22518 20.5406 2.30096C20.5406 2.37675 20.4797 2.43768 20.4039 2.43768H18.5289C18.4531 2.43768 18.3922 2.37675 18.3922 2.30096C18.3922 2.22518 18.4531 2.16425 18.5289 2.16425Z" fill="#1A1A1A"/>
<path d="M21.3477 2.01868H21.3078C21.1641 2.01868 21.0477 2.13515 21.0477 2.27883V2.31868C21.0477 2.46236 21.1641 2.57883 21.3078 2.57883H21.3477C21.4913 2.57883 21.6078 2.46236 21.6078 2.31868V2.27883C21.6078 2.13515 21.4913 2.01868 21.3477 2.01868Z" fill="url(#paint9_linear_1004_2442)"/>
<path d="M21.3281 2.03821H21.3274C21.1837 2.03821 21.0672 2.15468 21.0672 2.29836V2.29915C21.0672 2.44283 21.1837 2.5593 21.3274 2.5593H21.3281C21.4718 2.5593 21.5883 2.44283 21.5883 2.29915V2.29836C21.5883 2.15468 21.4718 2.03821 21.3281 2.03821Z" fill="#141414"/>
<path d="M21.2468 2.44918C21.2818 2.44918 21.3101 2.39182 21.3101 2.32106C21.3101 2.2503 21.2818 2.19293 21.2468 2.19293C21.2119 2.19293 21.1835 2.2503 21.1835 2.32106C21.1835 2.39182 21.2119 2.44918 21.2468 2.44918Z" fill="url(#paint10_linear_1004_2442)"/>
<path d="M21.4078 2.44918C21.4428 2.44918 21.4711 2.39182 21.4711 2.32106C21.4711 2.2503 21.4428 2.19293 21.4078 2.19293C21.3729 2.19293 21.3445 2.2503 21.3445 2.32106C21.3445 2.39182 21.3729 2.44918 21.4078 2.44918Z" fill="url(#paint11_linear_1004_2442)"/>
</g>
<defs>
<linearGradient id="paint0_linear_1004_2442" x1="10.9633" y1="6.55725" x2="10.9633" y2="5.13147" gradientUnits="userSpaceOnUse">
<stop stop-color="#666666"/>
<stop offset="0.03" stop-color="#919293"/>
<stop offset="0.06" stop-color="#B7B8BA"/>
<stop offset="0.09" stop-color="#D2D4D6"/>
<stop offset="0.11" stop-color="#E3E5E8"/>
<stop offset="0.13" stop-color="#E9EBEE"/>
<stop offset="0.88" stop-color="#E9EBEE"/>
<stop offset="0.89" stop-color="#E3E5E8"/>
<stop offset="0.92" stop-color="#D2D3D6"/>
<stop offset="0.94" stop-color="#B6B7B9"/>
<stop offset="0.97" stop-color="#8F8F90"/>
<stop offset="1" stop-color="#666666"/>
</linearGradient>
<linearGradient id="paint1_linear_1004_2442" x1="10.9633" y1="10.3751" x2="10.9633" y2="7.75323" gradientUnits="userSpaceOnUse">
<stop stop-color="#666666"/>
<stop offset="0.03" stop-color="#919293"/>
<stop offset="0.06" stop-color="#B7B8BA"/>
<stop offset="0.09" stop-color="#D2D4D6"/>
<stop offset="0.11" stop-color="#E3E5E8"/>
<stop offset="0.13" stop-color="#E9EBEE"/>
<stop offset="0.88" stop-color="#E9EBEE"/>
<stop offset="0.89" stop-color="#E3E5E8"/>
<stop offset="0.92" stop-color="#D2D3D6"/>
<stop offset="0.94" stop-color="#B6B7B9"/>
<stop offset="0.97" stop-color="#8F8F90"/>
<stop offset="1" stop-color="#666666"/>
</linearGradient>
<linearGradient id="paint2_linear_1004_2442" x1="10.9633" y1="13.6744" x2="10.9633" y2="11.0525" gradientUnits="userSpaceOnUse">
<stop stop-color="#666666"/>
<stop offset="0.03" stop-color="#919293"/>
<stop offset="0.06" stop-color="#B7B8BA"/>
<stop offset="0.09" stop-color="#D2D4D6"/>
<stop offset="0.11" stop-color="#E3E5E8"/>
<stop offset="0.13" stop-color="#E9EBEE"/>
<stop offset="0.88" stop-color="#E9EBEE"/>
<stop offset="0.89" stop-color="#E3E5E8"/>
<stop offset="0.92" stop-color="#D2D3D6"/>
<stop offset="0.94" stop-color="#B6B7B9"/>
<stop offset="0.97" stop-color="#8F8F90"/>
<stop offset="1" stop-color="#666666"/>
</linearGradient>
<linearGradient id="paint3_linear_1004_2442" x1="29.0367" y1="12.7969" x2="29.0367" y2="8.61719" gradientUnits="userSpaceOnUse">
<stop stop-color="#666666"/>
<stop offset="0.03" stop-color="#919293"/>
<stop offset="0.06" stop-color="#B7B8BA"/>
<stop offset="0.09" stop-color="#D2D4D6"/>
<stop offset="0.11" stop-color="#E3E5E8"/>
<stop offset="0.13" stop-color="#E9EBEE"/>
<stop offset="0.88" stop-color="#E9EBEE"/>
<stop offset="0.89" stop-color="#E3E5E8"/>
<stop offset="0.92" stop-color="#D2D3D6"/>
<stop offset="0.94" stop-color="#B6B7B9"/>
<stop offset="0.97" stop-color="#8F8F90"/>
<stop offset="1" stop-color="#666666"/>
</linearGradient>
<radialGradient id="paint4_radial_1004_2442" cx="0" cy="0" r="1" gradientUnits="userSpaceOnUse" gradientTransform="translate(20 18.4641) scale(14.3375 21.5063)">
<stop/>
<stop offset="1" stop-color="#F6F6F6"/>
</radialGradient>
<linearGradient id="paint5_linear_1004_2442" x1="19.9999" y1="3.67578" x2="19.9999" y2="0.765625" gradientUnits="userSpaceOnUse">
<stop offset="0.8" stop-color="#0C080C"/>
<stop offset="0.86" stop-color="#0F0B0F"/>
<stop offset="0.9" stop-color="#171417"/>
<stop offset="0.93" stop-color="#262326"/>
<stop offset="0.96" stop-color="#3A383A"/>
<stop offset="0.99" stop-color="#545354"/>
<stop offset="1" stop-color="#626262"/>
</linearGradient>
<linearGradient id="paint6_linear_1004_2442" x1="20" y1="35.6063" x2="20" y2="1.32349" gradientUnits="userSpaceOnUse">
<stop stop-color="#000009"/>
<stop offset="0.49" stop-color="#AA36CE"/>
<stop offset="0.98" stop-color="#FAC8EE"/>
</linearGradient>
<linearGradient id="paint7_linear_1004_2442" x1="11.4218" y1="0.889832" x2="13.8929" y2="0.889832" gradientUnits="userSpaceOnUse">
<stop offset="0.65" stop-color="#0C080C" stop-opacity="0"/>
<stop offset="0.71" stop-color="#110D11" stop-opacity="0.06"/>
<stop offset="0.79" stop-color="#201D20" stop-opacity="0.23"/>
<stop offset="0.88" stop-color="#383638" stop-opacity="0.51"/>
<stop offset="0.98" stop-color="#595959" stop-opacity="0.9"/>
<stop offset="1" stop-color="#626262"/>
</linearGradient>
<linearGradient id="paint8_linear_1004_2442" x1="26.0773" y1="0.889832" x2="28.5484" y2="0.889832" gradientUnits="userSpaceOnUse">
<stop offset="0.65" stop-color="#0C080C" stop-opacity="0"/>
<stop offset="0.71" stop-color="#110D11" stop-opacity="0.06"/>
<stop offset="0.79" stop-color="#201D20" stop-opacity="0.23"/>
<stop offset="0.88" stop-color="#383638" stop-opacity="0.51"/>
<stop offset="0.98" stop-color="#595959" stop-opacity="0.9"/>
<stop offset="1" stop-color="#626262"/>
</linearGradient>
<linearGradient id="paint9_linear_1004_2442" x1="21.5305" y1="2.50227" x2="21.1242" y2="2.09524" gradientUnits="userSpaceOnUse">
<stop stop-color="#333333"/>
<stop offset="0.16" stop-color="#282828"/>
<stop offset="0.46" stop-color="#191919"/>
<stop offset="0.7" stop-color="#141414"/>
</linearGradient>
<linearGradient id="paint10_linear_1004_2442" x1="21.2468" y1="2.44918" x2="21.2468" y2="2.19293" gradientUnits="userSpaceOnUse">
<stop stop-color="#141414"/>
<stop offset="0.24" stop-color="#141516"/>
<stop offset="0.35" stop-color="#15181C"/>
<stop offset="0.49" stop-color="#16212C"/>
<stop offset="0.64" stop-color="#193147"/>
<stop offset="0.8" stop-color="#1C466C"/>
<stop offset="0.98" stop-color="#20619B"/>
<stop offset="1" stop-color="#2165A2"/>
</linearGradient>
<linearGradient id="paint11_linear_1004_2442" x1="21.4078" y1="2.44918" x2="21.4078" y2="2.19293" gradientUnits="userSpaceOnUse">
<stop stop-color="#141414"/>
<stop offset="0.24" stop-color="#141516"/>
<stop offset="0.35" stop-color="#15181C"/>
<stop offset="0.49" stop-color="#16212C"/>
<stop offset="0.64" stop-color="#193147"/>
<stop offset="0.8" stop-color="#1C466C"/>
<stop offset="0.98" stop-color="#20619B"/>
<stop offset="1" stop-color="#2165A2"/>
</linearGradient>
<clipPath id="clip0_1004_2442">
<rect width="40" height="40" fill="white" transform="translate(0 0.5)"/>
</clipPath>
</defs>
</svg>
