<svg width="38" height="38" viewBox="0 0 38 38" fill="none" xmlns="http://www.w3.org/2000/svg">
<rect width="38" height="38" rx="6" fill="#F8F8F8"/>
<path d="M17.7266 25.9248H28.1523C28.8053 25.9248 29.2646 25.8307 29.5303 25.6426C29.7959 25.46 29.9287 25.186 29.9287 24.8208C29.9287 24.2896 29.7655 23.7279 29.439 23.1357C29.118 22.5436 28.6532 21.9902 28.0444 21.4756C27.4412 20.9554 26.708 20.5348 25.8447 20.2139C24.987 19.8874 24.0186 19.7241 22.9395 19.7241C21.8659 19.7241 20.8975 19.8874 20.0342 20.2139C19.1764 20.5348 18.4432 20.9554 17.8345 21.4756C17.2257 21.9902 16.7609 22.5436 16.4399 23.1357C16.119 23.7279 15.9585 24.2896 15.9585 24.8208C15.9585 25.186 16.0885 25.46 16.3486 25.6426C16.6143 25.8307 17.0736 25.9248 17.7266 25.9248ZM22.9478 18.2383C23.5399 18.2383 24.0877 18.0778 24.5913 17.7568C25.0949 17.4303 25.4989 16.9904 25.8032 16.437C26.1076 15.8836 26.2598 15.2611 26.2598 14.5693C26.2598 13.8887 26.1076 13.2799 25.8032 12.7432C25.4989 12.2008 25.0949 11.7747 24.5913 11.4648C24.0877 11.1549 23.5399 11 22.9478 11C22.3556 11 21.8078 11.1577 21.3042 11.4731C20.8006 11.7886 20.3939 12.2174 20.084 12.7598C19.7796 13.3021 19.6274 13.9108 19.6274 14.5859C19.6274 15.2721 19.7796 15.8919 20.084 16.4453C20.3883 16.9932 20.7923 17.4303 21.2959 17.7568C21.7995 18.0778 22.3501 18.2383 22.9478 18.2383ZM8.76172 25.9248H15.062C14.8462 25.6094 14.7438 25.2303 14.7549 24.7876C14.766 24.3449 14.8683 23.88 15.062 23.3931C15.2557 22.9061 15.5213 22.4357 15.8589 21.9819C16.202 21.5226 16.5977 21.1187 17.0459 20.77C16.5811 20.4601 16.047 20.2056 15.4438 20.0063C14.8462 19.8016 14.16 19.6992 13.3853 19.6992C12.45 19.6992 11.6061 19.8542 10.8535 20.1641C10.1064 20.4684 9.46729 20.8724 8.93604 21.376C8.41032 21.874 8.00635 22.4191 7.72412 23.0112C7.44189 23.6034 7.30078 24.1872 7.30078 24.7627C7.30078 25.1335 7.41146 25.4185 7.63281 25.6177C7.8597 25.8224 8.236 25.9248 8.76172 25.9248ZM13.3853 18.4292C13.9054 18.4292 14.3841 18.2881 14.8213 18.0059C15.2585 17.7236 15.6099 17.3418 15.8755 16.8604C16.1411 16.3734 16.2739 15.8311 16.2739 15.2334C16.2739 14.6357 16.1411 14.1045 15.8755 13.6396C15.6099 13.1693 15.2557 12.8013 14.813 12.5356C14.3758 12.2645 13.8999 12.1289 13.3853 12.1289C12.8761 12.1289 12.4002 12.2673 11.9575 12.5439C11.5203 12.8151 11.1662 13.1859 10.895 13.6562C10.6239 14.1266 10.491 14.6579 10.4966 15.25C10.4966 15.8421 10.6294 16.3789 10.895 16.8604C11.1606 17.3418 11.512 17.7236 11.9492 18.0059C12.3919 18.2881 12.8706 18.4292 13.3853 18.4292Z" fill="black"/>
</svg>
