<svg width="40" height="40" viewBox="0 0 40 40" fill="none" xmlns="http://www.w3.org/2000/svg">
<path d="M0 10C0 4.47715 4.47715 0 10 0H30C35.5228 0 40 4.47715 40 10V30C40 35.5228 35.5228 40 30 40H10C4.47715 40 0 35.5228 0 30V10Z" fill="#F5EFFB"/>
<path d="M28.1673 18.3336C28.5479 20.2013 28.2767 22.1431 27.3989 23.8351C26.5211 25.527 25.0897 26.8669 23.3436 27.6313C21.5975 28.3957 19.642 28.5384 17.8034 28.0355C15.9648 27.5327 14.3542 26.4147 13.2401 24.8681C12.126 23.3214 11.5758 21.4396 11.6812 19.5364C11.7867 17.6332 12.5414 15.8236 13.8195 14.4095C15.0977 12.9954 16.822 12.0623 18.7049 11.7656C20.5878 11.469 22.5155 11.8268 24.1665 12.7794" stroke="#7423D7" stroke-width="1.66667" stroke-linecap="round" stroke-linejoin="round"/>
<path d="M17.5 19.1673L20 21.6673L28.3333 13.334" stroke="#7423D7" stroke-width="1.66667" stroke-linecap="round" stroke-linejoin="round"/>
</svg>
