<svg width="24" height="24" viewBox="0 0 24 24" fill="none" xmlns="http://www.w3.org/2000/svg">
<g clip-path="url(#clip0_2125_629)">
<path d="M13.0603 12.0001L20.7007 4.35951C20.9937 4.06651 20.9937 3.59191 20.7007 3.29901C20.4077 3.00611 19.9331 3.00601 19.6402 3.29901L11.9998 10.9396L4.35935 3.29891C4.06635 3.00591 3.59175 3.00591 3.29885 3.29891C3.00595 3.59191 3.00585 4.06651 3.29885 4.35941L10.9393 12L3.29885 19.6406C3.00585 19.9336 3.00585 20.4082 3.29885 20.7011C3.44535 20.8476 3.63725 20.9208 3.82915 20.9208C4.02105 20.9208 4.21295 20.8476 4.35945 20.7011L11.9999 13.0605L19.6403 20.7011C19.7868 20.8476 19.9787 20.9208 20.1706 20.9208C20.3625 20.9208 20.5544 20.8476 20.7009 20.7011C20.9939 20.4081 20.9939 19.9335 20.7009 19.6406L13.0603 12.0001Z" fill="#404040"/>
</g>
<defs>
<clipPath id="clip0_2125_629">
<rect width="24" height="24" fill="white"/>
</clipPath>
</defs>
</svg>
