<svg width="20" height="20" viewBox="0 0 20 20" fill="none" xmlns="http://www.w3.org/2000/svg">
<g clip-path="url(#clip0_1430_25455)">
<path d="M10 18.3333C14.6024 18.3333 18.3333 14.6024 18.3333 10C18.3333 5.39763 14.6024 1.66667 10 1.66667C5.39763 1.66667 1.66667 5.39763 1.66667 10C1.66667 14.6024 5.39763 18.3333 10 18.3333Z" stroke="#3B82F6" stroke-width="1.66667" stroke-linecap="round" stroke-linejoin="round"/>
<path d="M10 15C12.7614 15 15 12.7614 15 10C15 7.23858 12.7614 5 10 5C7.23858 5 5 7.23858 5 10C5 12.7614 7.23858 15 10 15Z" stroke="#3B82F6" stroke-width="1.66667" stroke-linecap="round" stroke-linejoin="round"/>
<path d="M10 11.6667C10.9205 11.6667 11.6667 10.9205 11.6667 10C11.6667 9.07952 10.9205 8.33333 10 8.33333C9.07952 8.33333 8.33333 9.07952 8.33333 10C8.33333 10.9205 9.07952 11.6667 10 11.6667Z" stroke="#3B82F6" stroke-width="1.66667" stroke-linecap="round" stroke-linejoin="round"/>
</g>
<defs>
<clipPath id="clip0_1430_25455">
<rect width="20" height="20" fill="white"/>
</clipPath>
</defs>
</svg>
